<?xml version="1.0" encoding="UTF-8"?>
<svg width="1680px" height="56px" viewBox="0 0 1680 56" version="1.1" xmlns="http://www.w3.org/2000/svg" xmlns:xlink="http://www.w3.org/1999/xlink">
    <!-- Generator: Sketch 55 (78076) - https://sketchapp.com -->
    <title>MACH.Next_Top Bar_Pattern Only</title>
    <desc>Created with Sketch.</desc>
    <defs>
        <rect id="path-1" x="0" y="0" width="1680" height="56"></rect>
        <polygon id="path-3" points="481.507357 -277.213092 1681.29641 496.389397 479.296415 496.389397"></polygon>
        <filter x="-1.1%" y="-1.4%" width="102.2%" height="103.4%" filterUnits="objectBoundingBox" id="filter-4">
            <feOffset dx="0" dy="2" in="SourceAlpha" result="shadowOffsetOuter1"></feOffset>
            <feGaussianBlur stdDeviation="4" in="shadowOffsetOuter1" result="shadowBlurOuter1"></feGaussianBlur>
            <feComposite in="shadowBlurOuter1" in2="SourceAlpha" operator="out" result="shadowBlurOuter1"></feComposite>
            <feColorMatrix values="0 0 0 0 0   0 0 0 0 0   0 0 0 0 0  0 0 0 0.32 0" type="matrix" in="shadowBlurOuter1"></feColorMatrix>
        </filter>
        <polygon id="path-5" points="-0.703585208 -556.610603 1681.29641 300.64455 1681.29641 496.389397 -0.703585208 496.389397"></polygon>
        <filter x="-0.8%" y="-1.0%" width="101.5%" height="102.5%" filterUnits="objectBoundingBox" id="filter-6">
            <feOffset dx="0" dy="2" in="SourceAlpha" result="shadowOffsetOuter1"></feOffset>
            <feGaussianBlur stdDeviation="4" in="shadowOffsetOuter1" result="shadowBlurOuter1"></feGaussianBlur>
            <feComposite in="shadowBlurOuter1" in2="SourceAlpha" operator="out" result="shadowBlurOuter1"></feComposite>
            <feColorMatrix values="0 0 0 0 0   0 0 0 0 0   0 0 0 0 0  0 0 0 0.32 0" type="matrix" in="shadowBlurOuter1"></feColorMatrix>
        </filter>
    </defs>
    <g id="MACH.Next_Top-Bar_Pattern-Only" stroke="none" stroke-width="1" fill="none" fill-rule="evenodd">
        <mask id="mask-2" fill="white">
            <use xlink:href="#path-1"></use>
        </mask>
        <g id="Mask"></g>
        <path d="M181.290966,461.521564 C180.979728,461.630892 180.645015,461.69035 180.296415,461.69035 C179.650414,461.69035 179.052102,461.486166 178.562497,461.138815 L31.1562797,558.19035 L208.605248,558.19035 L181.290966,461.521564 Z M182.212687,460.998675 L209.426546,557.312053 L297.526233,381.11268 C297.407574,381.025819 297.295535,380.930451 297.191015,380.827472 L183.220722,458.017745 C183.270251,458.23397 183.296415,458.459104 183.296415,458.69035 C183.296415,459.080413 183.221971,459.45309 183.086517,459.794947 L183.428793,460.078435 L183.022741,459.943943 C182.834009,460.353721 182.555609,460.713681 182.212687,460.998675 Z M177.338445,458.187079 L-59.7179871,379.669397 L29.4444394,557.99425 L177.782988,460.328873 C177.475282,459.857827 177.296415,459.294977 177.296415,458.69035 C177.296415,458.518851 177.310805,458.350714 177.338445,458.187079 Z M1604.64632,436.370208 L1692.38084,611.839242 L1738.47055,379.564503 L1606.24693,433.144817 C1606.27943,433.32172 1606.29641,433.504052 1606.29641,433.69035 C1606.29641,434.861656 1605.62515,435.87618 1604.64632,436.370208 Z M1605.49661,431.650929 L1738.91596,377.586069 L1758.56022,200.68038 L1605.06557,431.267266 C1605.22132,431.381177 1605.36567,431.509741 1605.49661,431.650929 Z M1568.29135,111.866168 L1758.69051,197.8453 L1738.88386,19.4772077 L1568.095,110.607395 C1568.22507,110.943316 1568.29641,111.308502 1568.29641,111.69035 C1568.29641,111.749369 1568.29471,111.807991 1568.29135,111.866168 Z M1562.63405,110.30633 L1381.72347,20.4540605 C1381.70906,20.4738578 1381.69441,20.4934721 1381.67953,20.5128992 L1612.63331,268.193153 C1612.79479,268.085394 1612.96731,267.99288 1613.14882,267.917671 L1566.21861,114.545943 C1565.92806,114.639701 1565.61815,114.69035 1565.29641,114.69035 C1563.63956,114.69035 1562.29641,113.347204 1562.29641,111.69035 C1562.29641,111.191146 1562.41834,110.720421 1562.63405,110.30633 Z M1567.56571,109.728057 L1738.68687,18.4205647 L1704.12379,-91.0174857 L1567.48129,109.634537 C1567.51007,109.665113 1567.53822,109.696294 1567.56571,109.728057 Z M1600.62514,432.323566 L1480.9972,274.161988 C1480.73752,274.341023 1480.44822,274.48019 1480.13817,274.570651 L1512.91674,612.246038 L1601.14777,435.783988 C1600.62096,435.243422 1600.29641,434.504786 1600.29641,433.69035 C1600.29641,433.198059 1600.41499,432.733464 1600.62514,432.323566 Z M1650.32364,-193.490127 C1650.0032,-193.373354 1649.65725,-193.30965 1649.29641,-193.30965 C1649.17947,-193.30965 1649.06408,-193.316342 1648.95062,-193.329364 L1567.00877,108.551801 L1703.70783,-92.1832755 L1650.32364,-193.490127 Z M1537.26607,-365.881337 C1537.17735,-365.260663 1536.89864,-364.701263 1536.49075,-364.263929 L1536.94084,-363.690324 L1536.50786,-364.036197 L1648.28426,-199.134619 C1648.60047,-199.247926 1648.94123,-199.30965 1649.29641,-199.30965 C1649.70171,-199.30965 1650.08823,-199.22928 1650.44092,-199.083607 L1757.68924,-340.274684 L1757.27424,-340.80965 L1738.9874,-340.80965 L1737.77431,-343.235819 L1537.26607,-365.881337 Z M1534.94763,-369.238775 C1536.02281,-369.000802 1536.88115,-368.185941 1537.1813,-367.135534 L1737.11476,-344.554934 L1705.82885,-407.126738 L1579.15391,-570.420541 L1534.94763,-369.238775 Z M301.977465,380.037895 L515.466061,536.7285 L421.915958,131.626304 C421.716044,131.668278 421.508807,131.69035 421.296415,131.69035 C421.034185,131.69035 420.779813,131.656705 420.53738,131.593496 L301.054313,376.259075 C301.806876,376.804152 302.296415,377.690082 302.296415,378.69035 C302.296415,379.174954 302.181512,379.632722 301.977465,380.037895 Z M299.687126,381.665138 C299.559243,381.681771 299.428831,381.69035 299.296415,381.69035 C299.008729,381.69035 298.730501,381.649855 298.46712,381.574256 L210.159073,558.19035 L387.949731,558.19035 L299.687126,381.665138 Z M121.653781,222.834663 L418.296911,128.635237 C418.318814,127.419461 419.063947,126.380268 420.120307,125.929661 L312.508323,-61.5645107 C312.137713,-61.4006558 311.727692,-61.3096505 311.296415,-61.3096505 C310.802719,-61.3096505 310.336876,-61.4289046 309.926122,-61.640178 L121.301049,222.458399 C121.42906,222.573449 121.547121,222.699353 121.653781,222.834663 Z M308.378048,-65.0076763 L167.804658,-142.663218 C167.268383,-141.847887 166.345255,-141.30965 165.296415,-141.30965 C164.653559,-141.30965 164.05793,-141.51185 163.569657,-141.856121 L-60.2566371,105.878751 L-60.2154326,105.905739 L308.532929,-63.1401222 C308.380641,-63.4995159 308.296415,-63.8947471 308.296415,-64.3096505 C308.296415,-64.5499729 308.324673,-64.7836953 308.378048,-65.0076763 Z M117.48782,222.29661 C117.990681,221.916078 118.617187,221.69035 119.296415,221.69035 C119.708345,221.69035 120.100884,221.773373 120.458211,221.9236 L309.119053,-62.2458834 C309.104497,-62.2612353 309.090102,-62.276741 309.07587,-62.2923979 L-59.2258192,106.553909 L117.48782,222.29661 Z M116.331007,224.233312 L-136.415965,194.484674 L179.203656,455.895586 C179.378055,455.827343 179.560403,455.774954 179.748926,455.74019 L119.721983,227.660397 C119.582967,227.680138 119.440883,227.69035 119.296415,227.69035 C117.639561,227.69035 116.296415,226.347204 116.296415,224.69035 C116.296415,224.534961 116.308229,224.382332 116.331007,224.233312 Z M173.874763,-303.538542 L-101.905613,-168.566665 L162.703258,-145.819113 C163.223306,-146.710594 164.189902,-147.30965 165.296415,-147.30965 C165.333222,-147.30965 165.369875,-147.308988 165.406362,-147.307673 L175.630368,-302.383849 C174.914001,-302.546241 174.294958,-302.96498 173.874763,-303.538542 Z M178.461012,-307.386798 L296.355158,-341.90337 C296.505198,-342.650749 296.932973,-343.297703 297.526233,-343.731981 L209.55349,-519.677465 L177.320186,-308.130429 C177.756593,-307.972005 178.145805,-307.715191 178.461012,-307.386798 Z M296.597371,-339.998446 L179.277326,-305.649958 C179.289937,-305.538265 179.296415,-305.424714 179.296415,-305.30965 C179.296415,-303.786518 178.161326,-302.5285 176.69091,-302.335356 L166.471932,-147.335443 L296.865692,-339.55099 C296.763881,-339.691463 296.67395,-339.841106 296.597371,-339.998446 Z M182.77728,457.003026 L296.566245,379.935564 C296.392972,379.556273 296.296415,379.134587 296.296415,378.69035 C296.296415,378.131785 296.449066,377.608875 296.714926,377.161061 L121.533867,226.688845 C121.331347,226.915423 121.094919,227.111051 120.832558,227.267757 L180.969681,455.766194 C181.717395,455.937645 182.358516,456.38851 182.77728,457.003026 Z M162.858619,-142.56079 C162.50756,-143.049278 162.299694,-143.64759 162.296453,-144.294295 L-104.02592,-167.18915 L-60.3753568,104.518494 L162.858619,-142.56079 Z M173.29648,-305.288033 L-60.4185971,-340.760669 L-103.961712,-169.035102 L173.34754,-304.755239 C173.315248,-304.928076 173.297775,-305.106129 173.296491,-305.288031 Z M173.733404,-306.869645 L-60.2035852,-500.267978 L-60.2035852,-342.100875 L173.594816,-306.615592 C173.637006,-306.702709 173.683285,-306.787476 173.733404,-306.869645 Z M836.327365,378.257816 L627.383213,310.845642 C627.122313,311.098302 626.815676,311.304014 626.476923,311.449157 L749.296603,557.294839 L837.426004,381.036035 C836.737528,380.486334 836.296415,379.639855 836.296415,378.69035 C836.296415,378.543467 836.306971,378.399051 836.327365,378.257816 Z M838.420392,381.560429 L750.105432,558.19035 L927.914615,558.19035 L839.654066,381.669251 C839.53679,381.683183 839.417439,381.69035 839.296415,381.69035 C838.991658,381.69035 838.697515,381.644907 838.420392,381.560429 Z M1004.27849,-388.529587 C1004.81134,-389.014234 1005.51938,-389.30965 1006.29641,-389.30965 C1006.77303,-389.30965 1007.22368,-389.198508 1007.62387,-389.000726 L1231.2969,-600.198088 L872.265791,-488.882296 L1004.27849,-388.529587 Z M1003.50184,-387.402894 L871.069274,-488.074774 L751.439654,-267.408824 C751.546503,-267.299747 751.645091,-267.182547 751.734407,-267.058237 L1003.31121,-386.009824 C1003.30142,-386.10844 1003.29641,-386.20846 1003.29641,-386.30965 C1003.29641,-386.6954 1003.36922,-387.064145 1003.50184,-387.402894 Z M1008.67724,-384.48411 L1231.30916,-151.557103 C1231.57825,-151.795214 1231.89041,-151.985746 1232.23248,-152.115521 L1233.41897,-600.365502 L1008.66658,-388.148988 C1009.06135,-387.641027 1009.29641,-387.00279 1009.29641,-386.30965 C1009.29641,-385.622772 1009.06557,-384.989809 1008.67724,-384.48411 Z M1603.8347,430.738508 L1757.25334,200.265819 L1617.2734,270.316886 C1617.28859,270.439241 1617.29641,270.563881 1617.29641,270.69035 C1617.29641,270.841925 1617.28517,270.990876 1617.26348,271.136412 L1619.18776,271.564549 L1617.16705,271.564549 C1616.85509,272.59026 1616.00845,273.383125 1614.9517,273.618569 L1603.33951,430.690638 C1603.50831,430.693029 1603.67374,430.709348 1603.8347,430.738508 Z M1611.42944,271.576484 L1482.29429,271.576484 C1482.2957,271.614265 1482.29641,271.652224 1482.29641,271.69035 C1482.29641,272.337202 1482.09169,272.936239 1481.74351,273.426203 L1601.28097,431.468162 C1601.56899,431.20678 1601.90804,431.000621 1602.28141,430.866404 L1613.90318,273.664809 C1612.72998,273.511211 1611.77005,272.679751 1611.42944,271.576484 Z M1616.70954,268.907656 L1757.51864,198.44165 L1568.05009,112.882759 C1567.8454,113.354811 1567.52288,113.763908 1567.11964,114.072946 L1614.12648,267.695082 C1614.18273,267.691941 1614.23938,267.69035 1614.29641,267.69035 C1615.28565,267.69035 1616.16306,268.169153 1616.70954,268.907656 Z M1052.27918,220.013808 L1166.77695,252.061112 C1166.90592,251.862069 1167.05785,251.679276 1167.22897,251.516479 L1052.27639,219.341876 C1052.28962,219.456199 1052.29641,219.572481 1052.29641,219.69035 C1052.29641,219.799632 1052.29057,219.90755 1052.27918,220.013808 Z M799.094287,196.092166 L839.20576,375.691665 C839.235873,375.690799 839.266091,375.69035 839.296415,375.69035 C840.005306,375.69035 840.65677,375.936224 841.170179,376.347345 L1046.58684,220.979699 C1046.43149,220.653809 1046.3332,220.295485 1046.3049,219.917648 L800.209239,194.411235 C800.041019,195.093226 799.639542,195.683362 799.094287,196.092166 Z M800.240371,193.110241 L1046.48827,218.632432 C1046.78968,217.832753 1047.42289,217.195741 1048.22005,216.889226 L952.8473,-164.360119 C952.668724,-164.326976 952.484593,-164.30965 952.296415,-164.30965 C952.063887,-164.30965 951.837538,-164.336105 951.620214,-164.386169 L799.420012,191.571308 C799.831649,191.983825 800.12386,192.51556 800.240371,193.110241 Z M949.521039,-168.45071 L751.670364,-263.475194 C751.121657,-262.766158 750.262348,-262.30965 749.296415,-262.30965 C749.150436,-262.30965 749.006893,-262.320077 748.866488,-262.340226 L660.66674,16.020894 C660.991537,16.1879599 661.281889,16.4125619 661.52433,16.6812346 L949.440686,-166.387877 C949.347014,-166.678298 949.296415,-166.988065 949.296415,-167.30965 C949.296415,-167.713627 949.376263,-168.098954 949.521039,-168.45071 Z M1003.65598,-384.884314 L752.217087,-265.997932 C752.26897,-265.77692 752.296415,-265.54649 752.296415,-265.30965 C752.296415,-265.035296 752.259587,-264.769544 752.190605,-264.517067 L950.1733,-169.429175 C950.716335,-169.973123 951.467075,-170.30965 952.296415,-170.30965 C952.405718,-170.30965 952.513656,-170.303805 952.619933,-170.29241 L1004.6714,-383.78745 C1004.24749,-384.061133 1003.897,-384.438774 1003.65598,-384.884314 Z M954.728276,-165.552562 L1150.13048,103.539501 L1006.36295,-383.310367 C1006.34083,-383.309892 1006.31865,-383.30965 1006.29641,-383.30965 C1006.07304,-383.30965 1005.85536,-383.334064 1005.64591,-383.38037 L953.622714,-170.001295 C954.614336,-169.511744 955.296415,-168.490351 955.296415,-167.30965 C955.296415,-166.653423 955.085715,-166.046406 954.728276,-165.552562 Z M1533.19833,-369.102324 C1533.38659,-369.176408 1533.58415,-369.232005 1533.78878,-369.26688 L1578.24605,-571.590854 L1576.77586,-573.486038 L1372.82518,-573.486038 L1533.19833,-369.102324 Z M1482.07802,270.564549 L1610.03515,270.564549 L1295.97922,200.689451 L1477.06732,269.682537 C1477.61642,269.073324 1478.41169,268.69035 1479.29641,268.69035 C1480.55513,268.69035 1481.63278,269.465537 1482.07802,270.564549 Z M1281.07488,413.556828 L1281.10342,413.544455 L1281.07851,413.565766 C1281.21904,413.913065 1281.29641,414.292671 1281.29641,414.69035 C1281.29641,415.851371 1280.63688,416.858351 1279.67204,417.357074 L1332.69252,612.490061 L1477.44133,274.04819 C1477.21577,273.87048 1477.01633,273.661098 1476.84971,273.426751 L1280.74821,412.96114 C1280.87844,413.145449 1280.98841,413.345093 1281.07488,413.556828 Z M1279.9753,412.203753 L1476.39213,272.444993 C1476.32965,272.203881 1476.29641,271.950997 1476.29641,271.69035 C1476.29641,271.288745 1476.37533,270.905572 1476.51849,270.555491 L1291.88307,200.210903 C1291.41719,201.001713 1290.59901,201.560144 1289.64431,201.670394 L1278.87581,411.746253 C1279.27663,411.824681 1279.64886,411.982923 1279.9753,412.203753 Z M624.828574,311.654086 L624.761897,311.953459 L624.899111,311.664273 C624.875511,311.661151 624.851997,311.657754 624.828574,311.654086 Z M1478.81555,-219.347983 L1380.89395,16.1506186 C1381.03726,16.2409501 1381.17238,16.3430753 1381.29797,16.4556316 L1646.59678,-194.999666 C1646.40435,-195.395482 1646.29641,-195.839961 1646.29641,-196.30965 C1646.29641,-196.35741 1646.29753,-196.404908 1646.29974,-196.452121 L1481.94123,-220.892451 C1481.43532,-219.950285 1480.44068,-219.30965 1479.29641,-219.30965 C1479.13274,-219.30965 1478.97212,-219.322759 1478.81555,-219.347983 Z M1533.40656,-363.443824 L1481.14161,-224.675249 C1481.84451,-224.126197 1482.29641,-223.270697 1482.29641,-222.30965 C1482.29641,-222.155337 1482.28476,-222.003744 1482.26229,-221.855705 L1646.51316,-197.431381 C1646.6884,-197.865759 1646.96237,-198.24971 1647.30727,-198.555426 L1535.46943,-363.547644 C1535.10911,-363.394423 1534.71266,-363.30965 1534.29641,-363.30965 C1533.98658,-363.30965 1533.68772,-363.356619 1533.40656,-363.443824 Z M1531.50743,-367.41707 L1317.27927,-538.547982 L1478.16109,-225.08738 C1478.5113,-225.230667 1478.89463,-225.30965 1479.29641,-225.30965 C1479.55502,-225.30965 1479.80597,-225.27693 1480.04538,-225.215405 L1532.33219,-364.04203 C1531.69771,-364.592096 1531.29641,-365.404009 1531.29641,-366.30965 C1531.29641,-366.700788 1531.37127,-367.074442 1531.50743,-367.41707 Z M1233.8598,-152.256834 C1234.73581,-152.090386 1235.47691,-151.543041 1235.90428,-150.793615 L1476.4159,-221.468617 C1476.33812,-221.735465 1476.29641,-222.017687 1476.29641,-222.30965 C1476.29641,-223.098835 1476.60114,-223.816847 1477.09935,-224.35244 L1315.34368,-539.515644 L1233.8598,-152.256834 Z M657.526233,-343.731981 L569.67911,-519.426225 L557.61209,-327.29324 C558.785002,-327.170584 559.756815,-326.372093 560.131137,-325.294158 L656.305496,-341.544811 C656.37511,-342.442626 656.839945,-343.229605 657.526233,-343.731981 Z M609.471386,-258.070824 L657.272004,-339.095633 C656.908669,-339.428036 656.627424,-339.848692 656.462206,-340.323665 L560.28721,-324.072904 C560.221472,-323.230834 559.808057,-322.486381 559.190395,-321.982978 L606.531387,-257.735746 C607.026659,-258.096684 607.636666,-258.30965 608.296415,-258.30965 C608.713414,-258.30965 609.110541,-258.224571 609.471386,-258.070824 Z M1171.90746,255.168715 L1277.73573,411.742654 C1277.76982,411.736209 1277.80412,411.730341 1277.8386,411.72506 L1288.60906,201.611238 C1287.86606,201.437067 1287.22941,200.986722 1286.81333,200.374405 L1172.14835,252.756906 C1172.24445,253.050694 1172.29641,253.364453 1172.29641,253.69035 C1172.29641,254.227873 1172.15505,254.732379 1171.90746,255.168715 Z M1171.1983,251.370146 L1286.29801,198.789047 C1286.29695,198.756278 1286.29641,198.723376 1286.29641,198.69035 C1286.29641,197.203851 1287.37756,195.969868 1288.79641,195.731829 L1288.79641,-27.3511297 C1288.67128,-27.3721235 1288.54877,-27.400864 1288.4294,-27.4368413 L1171.03818,251.247468 C1171.09295,251.286593 1171.14636,251.327514 1171.1983,251.370146 Z M1230.67631,-150.771941 L1007.94506,-383.802863 C1007.75991,-383.680848 1007.56044,-383.578794 1007.34971,-383.499766 L1151.21801,103.691346 C1151.24406,103.690686 1151.2702,103.69035 1151.29641,103.69035 C1151.43087,103.69035 1151.56326,103.699195 1151.69303,103.716335 L1231.44859,-146.946106 C1230.74719,-147.495237 1230.29641,-148.349801 1230.29641,-149.30965 C1230.29641,-149.840586 1230.43434,-150.339307 1230.67631,-150.771941 Z M1476.96988,-220.415507 L1236.27303,-149.686076 C1236.28846,-149.562771 1236.29641,-149.437139 1236.29641,-149.30965 C1236.29641,-148.117989 1235.60161,-147.088607 1234.59502,-146.60451 L1288.67573,-33.245364 C1288.87599,-33.2874947 1289.08362,-33.3096505 1289.29641,-33.3096505 C1289.81885,-33.3096505 1290.3101,-33.1761059 1290.73789,-32.9412909 L1477.08423,-220.283237 C1477.04486,-220.326195 1477.00672,-220.370304 1476.96988,-220.415507 Z M1291.60689,-32.2233295 C1292.03754,-31.7039717 1292.29641,-31.037043 1292.29641,-30.3096505 C1292.29641,-30.1130471 1292.2775,-29.9208609 1292.2414,-29.7348118 L1376.94497,16.8271808 C1377.4945,16.1345572 1378.34358,15.6903495 1379.29641,15.6903495 C1379.52826,15.6903495 1379.75396,15.7166488 1379.9707,15.7664268 L1477.72928,-219.340122 L1291.60689,-32.2233295 Z M1232.34453,-146.46381 L1152.64849,104.011584 C1152.70571,104.040521 1152.76187,104.071238 1152.81691,104.103661 L1286.66292,-28.8715669 C1286.42926,-29.2985552 1286.29641,-29.7885895 1286.29641,-30.3096505 C1286.29641,-31.3711676 1286.84774,-32.3039156 1287.67967,-32.8371697 L1233.54023,-146.319415 C1233.45981,-146.312947 1233.3785,-146.30965 1233.29641,-146.30965 C1232.96369,-146.30965 1232.64362,-146.363816 1232.34453,-146.46381 Z M503.425978,127.577304 L656.587939,19.9819933 C656.401051,19.590807 656.296415,19.1527978 656.296415,18.6903495 C656.296415,18.3911311 656.340221,18.102144 656.421769,17.8294517 L533.810142,-42.6715852 C533.274689,-41.8515709 532.348838,-41.3096505 531.296415,-41.3096505 C531.032175,-41.3096505 530.775914,-41.3438132 530.531808,-41.4079627 L423.148938,126.330492 C423.678563,126.746834 424.064575,127.337628 424.220388,128.016287 L498.29986,129.835399 C498.297572,129.787337 498.296415,129.738978 498.296415,129.69035 C498.296415,128.033495 499.639561,126.69035 501.296415,126.69035 C502.129043,126.69035 502.882446,127.02955 503.425978,127.577304 Z M500.4361,132.56517 C499.570146,132.3064 498.86844,131.667048 498.525102,130.841231 L424.278726,129.018021 C424.179437,129.932045 423.669589,130.722837 422.93743,131.202147 L515.650017,532.677631 L500.4361,132.56517 Z M609.009352,-252.394877 L659.243064,15.6908024 C659.260812,15.6905049 659.278595,15.6903495 659.296415,15.6903495 C659.437901,15.6903495 659.5771,15.7001441 659.71337,15.7190921 L747.914445,-262.646217 C747.147938,-263.044744 746.575152,-263.764447 746.37443,-264.626985 L611.107211,-254.258791 C610.762637,-253.337544 609.978125,-252.631014 609.009352,-252.394877 Z M611.296251,-255.276214 L746.312812,-265.625196 C746.335537,-265.8426 746.381481,-266.053096 746.44812,-266.25416 L660.674687,-338.644297 C660.26199,-338.430455 659.79331,-338.30965 659.296415,-338.30965 C658.91841,-338.30965 658.556734,-338.379562 658.223611,-338.507161 L610.401934,-257.446656 C610.954105,-256.90257 611.296415,-256.146085 611.296415,-255.30965 C611.296415,-255.29849 611.296354,-255.287344 611.296232,-255.276213 Z M462.1919,-117.519515 L462.158793,-117.488582 L462.175831,-117.525936 C461.863399,-117.651824 461.577032,-117.828786 461.32707,-118.046479 L314.88138,-64.597427 L528.480259,-45.3460661 C528.56778,-45.5838038 528.684547,-45.8073998 528.826196,-46.0124922 L464.167121,-117.437956 C463.891554,-117.354514 463.599223,-117.30965 463.296415,-117.30965 C462.906383,-117.30965 462.533735,-117.384082 462.1919,-117.519515 Z M534.20946,-43.5896611 L656.864787,16.9329387 C657.211383,16.4542077 657.695889,16.081862 658.260022,15.874185 L608.049621,-252.087088 L533.546719,-46.2936744 C534.01331,-45.7648673 534.296415,-45.0703202 534.296415,-44.3096505 C534.296415,-44.0614614 534.266276,-43.8203116 534.20946,-43.5896611 Z M465.506754,-118.281227 L530.014611,-47.0228055 C530.403297,-47.2067601 530.83784,-47.3096505 531.296415,-47.3096505 C531.710605,-47.3096505 532.105191,-47.2257133 532.46409,-47.0739212 L606.466951,-251.486112 L466.2895,-120.514957 C466.294085,-120.447115 466.296415,-120.378655 466.296415,-120.30965 C466.296415,-119.527501 465.997096,-118.81526 465.506754,-118.281227 Z M627.724818,306.928492 L794.730621,195.245771 C794.455083,194.792221 794.296415,194.259815 794.296415,193.69035 C794.296415,193.614607 794.299222,193.53952 794.304737,193.465187 L503.878697,131.218302 C503.650944,131.602381 503.339941,131.931285 502.970547,132.180153 L623.30656,306.445204 C623.836087,305.975541 624.532946,305.69035 625.296415,305.69035 C626.294927,305.69035 627.179503,306.178172 627.724818,306.928492 Z M838.163503,375.911634 L798.111476,196.578304 C797.852311,196.6513 797.578923,196.69035 797.296415,196.69035 C796.592605,196.69035 795.945401,196.447987 795.433711,196.042168 L628.187306,307.885789 C628.258412,308.141834 628.296415,308.411654 628.296415,308.69035 C628.296415,309.063487 628.228292,309.420713 628.103805,309.75027 L836.76953,377.072614 C837.101397,376.555315 837.587768,376.146609 838.163503,375.911634 Z M661.879825,-339.783603 L747.383722,-267.620946 C747.902938,-268.051102 748.569483,-268.30965 749.296415,-268.30965 C749.628824,-268.30965 749.948605,-268.255588 750.247447,-268.155775 L868.567829,-486.406736 L662.236292,-341.910203 C662.275717,-341.716166 662.296415,-341.515325 662.296415,-341.30965 C662.296415,-340.752433 662.144499,-340.230698 661.879825,-339.783603 Z M1292.29315,198.832941 L1611.41975,269.836226 C1611.52359,269.485982 1611.68964,269.162483 1611.90511,268.878539 L1380.94828,21.19501 C1380.47454,21.5080828 1379.90676,21.6903495 1379.29641,21.6903495 C1378.99166,21.6903495 1378.69752,21.6449072 1378.42039,21.5604288 L1291.0666,196.268019 C1291.8122,196.813814 1292.29641,197.695535 1292.29641,198.69035 C1292.29641,198.738144 1292.2953,198.785678 1292.29309,198.832926 Z M501.456752,132.686138 L516.790686,535.954919 L623.487689,311.08399 C622.763986,310.536277 622.296415,309.667917 622.296415,308.69035 C622.296415,308.188496 622.419642,307.715424 622.63749,307.299741 L502.005495,132.60606 C501.828212,132.649022 501.644776,132.676236 501.456752,132.686138 Z M1276.75539,417.264837 L1111.44871,558.709173 L1331.88127,613.398208 L1278.69737,417.663788 C1278.56621,417.681306 1278.43237,417.69035 1278.29641,417.69035 C1277.73297,417.69035 1277.2058,417.535016 1276.75539,417.264837 Z M313.344126,-62.1171757 L421.138308,125.694444 C421.190666,125.691726 421.24338,125.69035 421.296415,125.69035 C421.636586,125.69035 421.963534,125.746967 422.268349,125.851293 L529.612404,-41.826531 C528.904542,-42.3075266 528.413135,-43.0832736 528.314611,-43.977344 L314.116057,-63.2827527 C313.952825,-62.8346643 313.685825,-62.4364488 313.344126,-62.1171757 Z M314.049354,-65.5037615 L460.600805,-118.991413 C460.568684,-119.056974 460.538883,-119.123879 460.511511,-119.192021 L168.222553,-143.645088 C168.21785,-143.624294 168.212932,-143.603582 168.2078,-143.582954 L308.772598,-65.9321584 C309.30646,-66.7608688 310.23735,-67.3096505 311.296415,-67.3096505 C312.528884,-67.3096505 313.587769,-66.5664487 314.049354,-65.5037615 Z M554.363019,-323.678046 L302.214993,-340.61251 C302.109021,-340.167211 301.90378,-339.76039 301.623948,-339.416726 L462.025717,-123.028034 C462.411567,-123.208709 462.842203,-123.30965 463.296415,-123.30965 C463.728814,-123.30965 464.139847,-123.218171 464.511217,-123.053509 L555.289659,-322.079609 C554.829091,-322.494331 554.497666,-323.049689 554.363019,-323.678046 Z M302.211234,-342.0224 L554.397667,-325.085357 C554.467641,-325.347512 554.572233,-325.595533 554.706246,-325.824223 L389.405238,-520.409263 L301.066597,-343.731981 C301.628129,-343.320928 302.041404,-342.719339 302.211234,-342.0224 Z M1051.02464,217.237854 L1148.80468,108.361615 C1148.4837,107.884005 1148.29641,107.309049 1148.29641,106.69035 C1148.29641,105.725339 1148.75205,104.866749 1149.45993,104.317974 L954.00659,-164.844512 C953.936859,-164.796046 953.864973,-164.750462 953.791106,-164.707934 L1049.20148,216.691799 C1049.23301,216.690843 1049.26465,216.69035 1049.29641,216.69035 C1049.93991,216.69035 1050.53609,216.892955 1051.02464,217.237854 Z M1166.37904,252.988172 L1052.00763,220.976236 C1051.58287,221.870241 1050.72894,222.520837 1049.7121,222.661783 L1025.47039,519.717057 L1166.94762,255.556854 C1166.53998,255.04457 1166.29641,254.395903 1166.29641,253.69035 C1166.29641,253.448542 1166.32502,253.213416 1166.37904,252.988172 Z M1170.13743,250.809832 L1287.53222,-27.8829508 C1287.44698,-27.9450252 1287.36514,-28.0114813 1287.28702,-28.081988 L1153.58482,104.750362 C1154.02868,105.273414 1154.29641,105.950615 1154.29641,106.69035 C1154.29641,107.977959 1153.48522,109.076104 1152.34601,109.501617 L1169.77888,250.728941 C1169.90103,250.748688 1170.0207,250.775808 1170.13743,250.809832 Z M1051.89944,218.197938 L1168.43543,250.815729 C1168.54517,250.782909 1168.65755,250.7562 1168.77217,250.736 L1151.36163,109.689655 C1151.33995,109.690117 1151.31821,109.69035 1151.29641,109.69035 C1150.62043,109.69035 1149.99667,109.466773 1149.49503,109.089531 L1051.73536,217.94309 C1051.79418,218.025049 1051.84897,218.110095 1051.89944,218.197938 Z M1047.33877,221.963661 L841.95775,377.30435 C842.174096,377.71892 842.296415,378.19035 842.296415,378.69035 C842.296415,379.20931 842.164643,379.697494 841.932732,380.123267 L1024.05814,523.018364 L1048.57407,222.602814 C1048.11043,222.488204 1047.68929,222.265776 1047.33877,221.963661 Z M122.080156,225.810867 L297.378244,376.383603 C297.898245,375.950722 298.566923,375.69035 299.296415,375.69035 C299.591326,375.69035 299.876299,375.732903 300.145527,375.812206 L419.614718,131.17504 C419.073553,130.808051 418.658618,130.268905 418.448592,129.63628 L122.139306,223.729692 C122.241184,224.031289 122.296415,224.354369 122.296415,224.69035 C122.296415,225.086477 122.219639,225.464672 122.080156,225.810867 Z M949.904954,-165.498048 L662.061535,17.5246862 C662.212791,17.8830477 662.296415,18.2769329 662.296415,18.6903495 C662.296415,19.4624483 662.004739,20.1664225 661.525563,20.6980967 L796.363897,190.838109 C796.657418,190.742206 796.970861,190.69035 797.296415,190.69035 C797.757687,190.69035 798.194645,190.794454 798.585074,190.980449 L950.697179,-164.770992 C950.391379,-164.964037 950.122885,-165.210808 949.904954,-165.498048 Z M1651.19311,-193.985192 L1704.09631,-93.5911103 L1758.30534,-339.194287 L1651.39731,-198.451202 C1651.95219,-197.906787 1652.29641,-197.148417 1652.29641,-196.30965 C1652.29641,-195.372283 1651.86651,-194.535326 1651.19311,-193.985192 Z M1376.46262,17.7031645 L1291.88376,-28.7902764 C1291.44292,-28.0411849 1290.68605,-27.5003829 1289.79641,-27.3511297 L1289.79641,195.731829 C1289.9247,195.753351 1290.05022,195.783015 1290.17244,195.82027 L1377.52623,21.1126801 C1376.78063,20.5668846 1376.29641,19.6851644 1376.29641,18.6903495 C1376.29641,18.3444978 1376.35494,18.0123151 1376.46262,17.7031645 Z M177.729238,457.137206 C177.793677,457.030925 177.864529,456.928964 177.941259,456.831861 L-137.741046,195.369031 L-60.3313853,378.286916 L177.729238,457.137206 Z M168.257988,-144.791098 L460.296794,-120.35896 C460.30865,-121.093603 460.584557,-121.764071 461.033757,-122.279585 L300.656638,-338.635023 C300.248346,-338.426966 299.786081,-338.30965 299.296415,-338.30965 C298.851382,-338.30965 298.428983,-338.406554 298.049165,-338.580411 L167.580605,-146.2546 C167.928402,-145.846535 168.168779,-145.344118 168.257988,-144.791098 Z M504.251246,130.211859 L794.570502,192.435858 C794.774587,191.993131 795.083355,191.608599 795.465078,191.31399 L660.742176,21.3196305 C660.313388,21.5559102 659.820601,21.6903495 659.296415,21.6903495 C658.461996,21.6903495 657.707144,21.3496887 657.163348,20.7998589 L504.002742,128.394218 C504.190977,128.786541 504.296415,129.226132 504.296415,129.69035 C504.296415,129.868227 504.280934,130.042488 504.251246,130.211859 Z M1478.35323,274.539083 L1333.3446,613.588444 L1512.03606,613.588444 L1479.1384,274.68626 C1478.86543,274.672094 1478.60211,274.621441 1478.35323,274.539083 Z M1275.301,414.857704 C1275.29796,414.802306 1275.29641,414.746508 1275.29641,414.69035 C1275.29641,413.734259 1275.74367,412.88263 1276.44036,412.33327 L1170.91934,256.2139 C1170.45149,256.515402 1169.89438,256.69035 1169.29641,256.69035 C1169.00419,256.69035 1168.72171,256.648566 1168.45465,256.570648 L1025.73085,523.058394 L1275.301,414.857704 Z M465.673064,-122.140612 L606.061219,-253.308633 C605.585638,-253.839511 605.296415,-254.540805 605.296415,-255.30965 C605.296415,-255.887866 605.459996,-256.427876 605.743406,-256.885924 L558.175859,-321.440616 C557.897736,-321.355468 557.602426,-321.30965 557.296415,-321.30965 C556.947337,-321.30965 556.612184,-321.369272 556.300583,-321.478886 L465.481979,-122.364733 C465.549232,-122.293237 465.613017,-122.21844 465.673064,-122.140612 Z M661.432563,-343.416039 L869.588425,-489.190169 L749.562055,-520.722896 L661.066597,-343.731981 C661.196975,-343.636541 661.319361,-343.53083 661.432563,-343.416039 Z M1382.16882,19.5587042 L1563.25067,109.496039 C1563.78658,108.9962 1564.50578,108.69035 1565.29641,108.69035 C1565.50936,108.69035 1565.71711,108.712535 1565.91751,108.754721 L1647.99013,-193.60822 C1647.6879,-193.754633 1647.41396,-193.95027 1647.17872,-194.184715 L1381.92166,17.2372963 C1382.16045,17.6677854 1382.29641,18.1631888 1382.29641,18.6903495 C1382.29641,18.9922969 1382.25181,19.2838253 1382.16882,19.5587042 Z M1603.3288,436.690178 C1603.31802,436.690292 1603.30722,436.69035 1603.29641,436.69035 C1602.82951,436.69035 1602.38752,436.583689 1601.99348,436.393404 L1513.39596,613.588444 L1691.77793,613.588444 L1603.3288,436.690178 Z M299.898194,-344.249278 L388.487398,-521.427684 L210.105432,-521.427684 L298.694635,-344.249278 C298.889053,-344.288866 299.090306,-344.30965 299.296415,-344.30965 C299.502523,-344.30965 299.703777,-344.288866 299.898194,-344.249278 Z M658.694635,-344.249278 C658.889053,-344.288866 659.090306,-344.30965 659.296415,-344.30965 C659.502523,-344.30965 659.703777,-344.288866 659.898194,-344.249278 L748.487398,-521.427684 L570.105432,-521.427684 L658.694635,-344.249278 Z M555.765483,-326.890163 C556.009212,-327.035071 556.275219,-327.146431 556.557136,-327.217876 L568.764027,-521.577908 L390.377227,-521.577908 L555.765483,-326.890163 Z M176.274603,-308.309584 L208.707612,-521.167287 L-59.4266959,-501.325769 L174.645983,-307.815259 C175.113788,-308.124022 175.673157,-308.30529 176.274601,-308.309573 Z M208.487398,559.19035 L29.6374349,559.19035 L29.1010364,559.543512 L28.9244553,559.19035 L27.6277497,559.19035 L28.6033049,558.548049 L-61.6891833,377.963072 L-61.5323047,378.015034 L-139.347165,194.139668 L-140.014633,194.061106 L-139.584041,193.579934 L-139.858192,192.932118 L-140.622247,192.299292 L-140.099986,192.360763 L-140.258954,191.985125 L-139.756625,192.401177 L-138.646154,192.531881 L-61.1593008,105.943172 L-105.052926,-167.277439 L-105.244558,-167.293913 L-105.461819,-167.187581 L-105.430798,-167.309923 L-106.55143,-167.40626 L-105.244138,-168.046072 L-105.202678,-168.209584 L-105.30702,-168.859073 L-105.043731,-168.836439 L-61.2035852,-341.733441 L-61.2035852,-501.497264 L-61.9804745,-502.139527 L-61.2035852,-502.197016 L-61.2035852,-502.392169 L-60.9869197,-502.213049 L208.61949,-522.163501 L208.487398,-522.427684 L208.960998,-522.427684 L209.039339,-522.941836 L209.296415,-522.427684 L388.343218,-522.427684 L388.215602,-522.577908 L568.875083,-522.577908 L568.913719,-523.193076 L569.221303,-522.577908 L569.828803,-522.577908 L569.819368,-522.427684 L750.105432,-522.427684 L749.74586,-521.708541 L870.506571,-489.982893 L870.59745,-490.150526 L870.982424,-489.857879 L871.542468,-489.710747 L872.209386,-490.177799 L872.036024,-489.858019 L1232.9478,-601.7569 L1233.42384,-602.206395 L1233.43618,-606.865835 L1315.7914,-545.515298 L1315.18427,-542.629862 L1315.4436,-542.124573 L1371.39395,-573.690112 L1370.76941,-574.486038 L1579.90607,-574.486038 L1579.71288,-573.606823 L1583.80577,-568.330774 L1649.59467,-519.435603 L1649.72307,-519.295004 L1649.84222,-519.100012 L1648.8492,-521.086044 L1649.72307,-521.570355 L1759.32909,-342.195255 L1760.26321,-343.425014 L1759.94353,-341.976639 L1760.21457,-341.946027 L1759.82315,-341.430733 L1760.40567,-340.67982 L1759.6755,-340.762287 L1759.44698,-339.726964 L1759.71093,-339.295004 L1759.28707,-339.002442 L1704.80744,-92.1733062 L1739.58432,17.9416997 L1739.71194,17.873604 L1739.7928,18.6018288 L1739.89831,18.9359122 L1739.83373,18.9703746 L1759.63225,197.265287 L1760.00833,196.70032 L1759.95008,197.224865 L1760.74307,196.828024 L1759.8442,198.178346 L1759.82134,198.384257 L1760.44785,198.667171 L1759.82266,198.980037 L1759.87804,199.478791 L1759.70831,199.402143 L1739.76046,379.041798 L1739.57919,379.115254 L1693.00856,613.813641 L1693.39596,614.588444 L1692.85482,614.588444 L1692.79305,614.899732 L1692.63741,614.588444 L1513.13783,614.588444 L1512.86357,614.588444 L1512.25715,615.801283 L1512.13942,614.588444 L1333.24093,614.588444 L1333.29262,614.778679 L1332.84845,614.66848 L1332.48137,615.526749 L1332.22642,614.588444 L1331.82929,614.588444 L1331.89611,614.432207 L1110.51524,559.507897 L1109.38969,560.470969 L1024.52773,525.796523 L929.048382,560.457884 L928.414615,559.19035 L750.105128,559.19035 L749.466881,559.19035 L749.296227,559.531658 L749.125716,559.19035 L570.489063,559.19035 L569.657672,562.923249 L515.686759,541.836463 L516.783274,539.525486 L516.154853,539.627753 L515.946331,540.067228 L515.931005,539.664181 L389.013691,560.318269 L388.449731,559.19035 L209.659073,559.19035 L209.166284,560.175929 L208.887803,559.19035 L208.487398,559.19035 Z M1655.99446,-509.031596 L1753.14801,-350.035508 L1754.17679,-348.70933 L1655.01094,-510.998642 L1655.99446,-509.031596 Z M1700.33342,-418.117607 L1655.11902,-508.546412 L1648.92033,-518.690844 L1586.08827,-565.388445 L1700.33342,-418.117607 Z M1703.47872,-414.063066 L1747.6284,-357.15072 L1661.27126,-498.477995 L1703.47872,-414.063066 Z M1750.40192,-341.80965 L1738.95926,-343.101991 L1739.60543,-341.80965 L1750.40192,-341.80965 Z M1738.2997,-344.421105 L1756.0257,-342.419121 L1708.97416,-403.072197 L1738.2997,-344.421105 Z M1702.62829,-413.527858 L1583.09948,-567.609759 L1581.91993,-568.486413 L1703.53398,-411.716486 L1702.62829,-413.527858 Z M1705.7736,-409.473317 L1706.67928,-407.661946 L1754.17679,-346.433979 L1752.32375,-349.466574 L1705.7736,-409.473317 Z M-60.8980336,107.15079 L-137.432085,192.674778 L115.050371,222.392283 L-60.8980336,107.15079 Z M929.532649,559.19035 L929.544447,559.213945 L929.609445,559.19035 L929.532649,559.19035 Z M930.029235,559.037956 L1023.49993,525.105785 L1023.54095,525.029203 L841.681739,382.342963 L930.029235,559.037956 Z M1234.43175,-601.321796 L1233.25865,-158.12828 L1314.04111,-542.053557 L1313.72704,-542.665483 L1314.10614,-542.362645 L1314.68115,-545.095401 L1234.43092,-604.877826 L1234.42635,-603.152988 L1234.43663,-603.162689 L1234.43412,-602.217729 L1235.84334,-602.654649 L1234.43175,-601.321796 Z M1579.41223,-571.59611 L1580.81697,-570.552088 L1579.54353,-572.193652 L1579.41223,-571.59611 Z M1757.84336,-342.351361 L1757.93363,-342.203638 L1757.96029,-342.200626 L1757.84336,-342.351361 Z M1576.86931,-573.486038 L1578.41075,-572.340419 L1578.66248,-573.486038 L1576.86931,-573.486038 Z M569.464561,559.19035 L568.672804,559.19035 L621.851893,320.419257 L517.050258,541.295574 L568.935158,561.567341 L569.464561,559.19035 Z M622.831072,316.0228 L623.344077,313.719437 L516.89485,538.06816 L517.084691,538.89023 L622.831072,316.0228 Z M625.528656,312.065702 L570.711783,558.19035 L748.487701,558.19035 L625.528656,312.065702 Z M1025.07643,524.544494 L1275.13686,416.131246 L1275.40325,415.903314 L1025.08595,524.427929 L1025.07643,524.544494 Z M1272.55468,418.340683 L1025.90048,525.277169 L1108.25207,558.925885 L1272.55468,418.340683 Z M1108.37995,558.978134 L1109.20314,559.314488 L1109.32284,559.212064 L1108.37995,558.978134 Z M301.518754,382.016994 L390.076348,559.132181 L515.11189,538.784326 L301.518754,382.016994 Z M389.718908,559.19035 L389.567765,559.19035 L389.579138,559.213095 L389.718908,559.19035 Z M1316.12698,-541.361946 L1530.84367,-369.84079 L1371.66901,-572.697122 L1316.12698,-541.361946 Z" id="Combined-Shape" fill-opacity="0.12" fill="#FFFFFF" fill-rule="nonzero" mask="url(#mask-2)"></path>
        <circle id="Oval-Copy-24" fill-opacity="0.28" fill="#F8F8F8" mask="url(#mask-2)" cx="1379.29641" cy="18.6903495" r="3"></circle>
        <circle id="Oval-Copy-17" fill-opacity="0.28" fill="#F8F8F8" mask="url(#mask-2)" cx="659.296415" cy="18.6903495" r="3"></circle>
        <g id="Path-24-Copy" mask="url(#mask-2)" transform="translate(1080.296415, 109.588152) scale(-1, 1) translate(-1080.296415, -109.588152) ">
            <use fill="black" fill-opacity="1" filter="url(#filter-4)" xlink:href="#path-3"></use>
            <use fill-opacity="0.05" fill="#FFFFFF" fill-rule="evenodd" xlink:href="#path-3"></use>
        </g>
        <g id="Path-24-Copy-2" mask="url(#mask-2)">
            <use fill="black" fill-opacity="1" filter="url(#filter-6)" xlink:href="#path-5"></use>
            <use fill-opacity="0.05" fill="#FFFFFF" fill-rule="evenodd" xlink:href="#path-5"></use>
        </g>
    </g>
</svg>